<svg width="25" height="25" viewBox="0 0 25 25" fill="none" xmlns="http://www.w3.org/2000/svg">
<path fill-rule="evenodd" clip-rule="evenodd" d="M16.5719 2.08337C19.8469 2.08337 22.0469 4.32608 22.0469 7.66358V17.2428C22.0469 20.6094 19.9146 22.799 16.6146 22.8198L8.60104 22.823C5.32604 22.823 3.125 20.5803 3.125 17.2428V7.66358C3.125 4.29587 5.25729 2.10733 8.55729 2.08754L16.5708 2.08337H16.5719ZM16.5719 3.64587L8.5625 3.65004C6.1375 3.66462 4.6875 5.16462 4.6875 7.66358V17.2428C4.6875 19.7584 6.15104 21.2605 8.6 21.2605L16.6094 21.2573C19.0344 21.2428 20.4844 19.7407 20.4844 17.2428V7.66358C20.4844 5.14796 19.0219 3.64587 16.5719 3.64587ZM16.3709 16.1185C16.8022 16.1185 17.1522 16.4685 17.1522 16.8997C17.1522 17.331 16.8022 17.681 16.3709 17.681H8.8501C8.41885 17.681 8.06885 17.331 8.06885 16.8997C8.06885 16.4685 8.41885 16.1185 8.8501 16.1185H16.3709ZM16.3709 11.7575C16.8022 11.7575 17.1522 12.1075 17.1522 12.5388C17.1522 12.97 16.8022 13.32 16.3709 13.32H8.8501C8.41885 13.32 8.06885 12.97 8.06885 12.5388C8.06885 12.1075 8.41885 11.7575 8.8501 11.7575H16.3709ZM11.7196 7.40671C12.1508 7.40671 12.5008 7.75671 12.5008 8.18796C12.5008 8.61921 12.1508 8.96921 11.7196 8.96921H8.84979C8.41854 8.96921 8.06854 8.61921 8.06854 8.18796C8.06854 7.75671 8.41854 7.40671 8.84979 7.40671H11.7196Z" fill="#022044"/>
</svg>
