<svg width="20" height="20" viewBox="0 0 20 20" fill="none" xmlns="http://www.w3.org/2000/svg">
<path d="M1.66699 5.00002C1.66699 4.11597 2.01818 3.26812 2.6433 2.643C3.26842 2.01788 4.11627 1.66669 5.00033 1.66669H15.0003C15.8844 1.66669 16.7322 2.01788 17.3573 2.643C17.9825 3.26812 18.3337 4.11597 18.3337 5.00002V15C18.3337 15.8841 17.9825 16.7319 17.3573 17.357C16.7322 17.9822 15.8844 18.3334 15.0003 18.3334H5.00033C4.11627 18.3334 3.26842 17.9822 2.6433 17.357C2.01818 16.7319 1.66699 15.8841 1.66699 15V5.00002Z" stroke="black" stroke-linecap="round" stroke-linejoin="round"/>
<path d="M7.08333 9.16667C8.23393 9.16667 9.16667 8.23393 9.16667 7.08333C9.16667 5.93274 8.23393 5 7.08333 5C5.93274 5 5 5.93274 5 7.08333C5 8.23393 5.93274 9.16667 7.08333 9.16667Z" stroke="black" stroke-linecap="round" stroke-linejoin="round"/>
<path d="M12.105 10.5175L5 18.3334H15.1108C15.9655 18.3334 16.7852 17.9938 17.3895 17.3895C17.9938 16.7852 18.3333 15.9655 18.3333 15.1109V15C18.3333 14.6117 18.1875 14.4625 17.925 14.175L14.5667 10.5125C14.4101 10.3418 14.2198 10.2055 14.0076 10.1125C13.7955 10.0195 13.5664 9.97164 13.3347 9.97211C13.1031 9.97258 12.8741 10.0213 12.6624 10.1152C12.4507 10.2091 12.2608 10.3462 12.105 10.5175V10.5175Z" stroke="black" stroke-linecap="round" stroke-linejoin="round"/>
</svg>
